<?xml version="1.0" encoding="UTF-8" standalone="no"?>
<!-- Created with Inkscape (http://www.inkscape.org/) -->

<svg
   xmlns:dc="http://purl.org/dc/elements/1.1/"
   xmlns:cc="http://creativecommons.org/ns#"
   xmlns:rdf="http://www.w3.org/1999/02/22-rdf-syntax-ns#"
   xmlns:svg="http://www.w3.org/2000/svg"
   xmlns="http://www.w3.org/2000/svg"
   xmlns:sodipodi="http://sodipodi.sourceforge.net/DTD/sodipodi-0.dtd"
   xmlns:inkscape="http://www.inkscape.org/namespaces/inkscape"
   width="210mm"
   height="297mm"
   id="svg2"
   version="1.1"
   inkscape:version="0.48.5 r10040"
   sodipodi:docname="xdg-autostart.svg">
  <defs
     id="defs4" />
  <sodipodi:namedview
     id="base"
     pagecolor="#ffffff"
     bordercolor="#666666"
     borderopacity="1.0"
     inkscape:pageopacity="0.0"
     inkscape:pageshadow="2"
     inkscape:zoom="0.98994949"
     inkscape:cx="185.07159"
     inkscape:cy="532.66267"
     inkscape:document-units="px"
     inkscape:current-layer="layer1"
     showgrid="false"
     showguides="true"
     inkscape:guide-bbox="true"
     inkscape:window-width="1439"
     inkscape:window-height="880"
     inkscape:window-x="1"
     inkscape:window-y="1"
     inkscape:window-maximized="1">
    <sodipodi:guide
       orientation="0,1"
       position="253.04321,565.18035"
       id="guide2996" />
    <sodipodi:guide
       orientation="1,0"
       position="240.41631,677.81236"
       id="guide3817" />
  </sodipodi:namedview>
  <metadata
     id="metadata7">
    <rdf:RDF>
      <cc:Work
         rdf:about="">
        <dc:format>image/svg+xml</dc:format>
        <dc:type
           rdf:resource="http://purl.org/dc/dcmitype/StillImage" />
        <dc:title></dc:title>
      </cc:Work>
    </rdf:RDF>
  </metadata>
  <g
     inkscape:label="Calque 1"
     inkscape:groupmode="layer"
     id="layer1">
    <path
       style="fill:#000000;fill-opacity:1;stroke:none"
       d="M 254.28125 309.5 C 156.44795 309.5 77.15625 388.82295 77.15625 486.65625 C 77.15625 584.48955 156.44795 663.78125 254.28125 663.78125 C 352.11455 663.78125 431.4375 584.48955 431.4375 486.65625 C 431.4375 388.82295 352.11455 309.5 254.28125 309.5 z M 254.28125 378.0625 C 314.24359 378.0625 362.84375 426.69391 362.84375 486.65625 C 362.84375 546.61859 314.24359 595.21875 254.28125 595.21875 C 194.31891 595.21875 145.71875 546.61859 145.71875 486.65625 C 145.71875 426.69391 194.31891 378.0625 254.28125 378.0625 z "
       id="path2985"
       inkscape:export-filename="/tmp/xdg.png"
       inkscape:export-xdpi="38.867424"
       inkscape:export-ydpi="38.867424" />
    <path
       style="fill:#ffff00;fill-opacity:1;stroke:#0e0000;stroke-width:4;stroke-miterlimit:4;stroke-opacity:1;stroke-dasharray:none"
       d="M 240.34375 414.6875 L 224.5625 452.09375 L 244.0625 463.34375 L 101.5 463.34375 L 101.5 509.53125 L 244.75 509.53125 L 224.5625 521.1875 L 240.40625 557.71875 L 407.09375 486.65625 L 240.34375 414.6875 z "
       id="rect2990"
       inkscape:export-filename="/tmp/xdg.png"
       inkscape:export-xdpi="38"
       inkscape:export-ydpi="38" />
    <path
       style="fill:#000000;fill-opacity:1;stroke:none"
       d="m -681.46875,403.09375 -42.84375,74.25 82.90625,47.875 -82.90625,47.875 42.84375,74.25 165.78125,-95.71875 44.349,-26.40625 -44.349,-26.40625 z"
       id="rect2992"
       inkscape:connector-curvature="0"
       sodipodi:nodetypes="ccccccccc" />
  </g>
</svg>
